<svg width="24" height="24" viewBox="0 0 24 24" fill="none" xmlns="http://www.w3.org/2000/svg">
<path fill-rule="evenodd" clip-rule="evenodd" d="M0 0V24H24V0H0ZM3.41421 2L12 10.5858L20.5858 2H3.41421ZM22 3.41421L13.4142 12L22 20.5858V3.41421ZM20.5858 22L12 13.4142L3.41421 22H20.5858ZM2 20.5858L10.5858 12L2 3.41421V20.5858Z" fill="white"/>
<path d="M11.8232 10.7626L12 10.9393L12.1768 10.7626L20.7626 2.17678L21.1893 1.75H20.5858H3.41421H2.81066L3.23744 2.17678L11.8232 10.7626ZM13.2374 11.8232L13.0607 12L13.2374 12.1768L21.8232 20.7626L22.25 21.1893V20.5858V3.41421V2.81066L21.8232 3.23744L13.2374 11.8232ZM12.1768 13.2374L12 13.0607L11.8232 13.2374L3.23744 21.8232L2.81066 22.25H3.41421H20.5858H21.1893L20.7626 21.8232L12.1768 13.2374ZM10.7626 12.1768L10.9393 12L10.7626 11.8232L2.17678 3.23744L1.75 2.81066V3.41421V20.5858V21.1893L2.17678 20.7626L10.7626 12.1768ZM12 10.2322L4.01777 2.25H19.9822L12 10.2322ZM21.75 19.9822L13.7678 12L21.75 4.01777V19.9822ZM4.01777 21.75L12 13.7678L19.9822 21.75H4.01777ZM10.2322 12L2.25 19.9822V4.01777L10.2322 12ZM0.25 23.75V0.25H23.75V23.75H0.25Z" stroke="black" stroke-width="0.5"/>
</svg>
