<svg width="25" height="24" viewBox="0 0 25 24" fill="none" xmlns="http://www.w3.org/2000/svg">
<path d="M12.5021 2.05444C7.00933 2.05444 2.55664 6.50713 2.55664 12C2.55664 17.4928 7.00933 21.9455 12.5021 21.9455C17.995 21.9455 22.4477 17.4928 22.4477 12C22.4477 6.50713 17.995 2.05444 12.5021 2.05444ZM10.0676 16.1222H8.0536V9.641H10.0676V16.1222ZM9.04816 8.84536C8.41206 8.84536 8.00077 8.3947 8.00077 7.83734C8.00077 7.26858 8.42449 6.83139 9.07406 6.83139C9.72362 6.83139 10.1214 7.26858 10.1339 7.83734C10.1339 8.3947 9.72362 8.84536 9.04816 8.84536ZM17.4231 16.1222H15.4091V12.5304C15.4091 11.6943 15.117 11.1266 14.3887 11.1266C13.8324 11.1266 13.5019 11.511 13.3558 11.8808C13.3019 12.0124 13.2885 12.1989 13.2885 12.3843V16.1211H11.2735V11.7078C11.2735 10.8987 11.2476 10.2222 11.2206 9.63996H12.9704L13.0626 10.5402H13.103C13.3682 10.1176 14.0178 9.49389 15.1046 9.49389C16.4296 9.49389 17.4231 10.3817 17.4231 12.29V16.1222Z" fill="#FF9D02"/>
</svg>
