<svg width="25" height="24" viewBox="0 0 25 24" fill="none" xmlns="http://www.w3.org/2000/svg">
<path d="M15.5022 12C15.5022 12.5933 15.3263 13.1734 14.9966 13.6667C14.667 14.1601 14.1984 14.5446 13.6502 14.7716C13.1021 14.9987 12.4989 15.0581 11.9169 14.9424C11.335 14.8266 10.8004 14.5409 10.3809 14.1213C9.96132 13.7018 9.6756 13.1672 9.55984 12.5853C9.44409 12.0033 9.5035 11.4001 9.73056 10.8519C9.95762 10.3038 10.3421 9.83524 10.8355 9.50559C11.3288 9.17595 11.9089 9 12.5022 9C13.2971 9.00247 14.0587 9.31934 14.6208 9.88141C15.1829 10.4435 15.4997 11.2051 15.5022 12ZM21.8772 7.875V16.125C21.8772 17.5174 21.3241 18.8527 20.3395 19.8373C19.3549 20.8219 18.0196 21.375 16.6272 21.375H8.3772C6.98481 21.375 5.64945 20.8219 4.66489 19.8373C3.68032 18.8527 3.1272 17.5174 3.1272 16.125V7.875C3.1272 6.48261 3.68032 5.14726 4.66489 4.16269C5.64945 3.17812 6.98481 2.625 8.3772 2.625H16.6272C18.0196 2.625 19.3549 3.17812 20.3395 4.16269C21.3241 5.14726 21.8772 6.48261 21.8772 7.875ZM17.0022 12C17.0022 11.11 16.7383 10.24 16.2438 9.49993C15.7493 8.75991 15.0465 8.18314 14.2243 7.84254C13.402 7.50195 12.4972 7.41283 11.6243 7.58647C10.7514 7.7601 9.94955 8.18868 9.32022 8.81802C8.69088 9.44736 8.2623 10.2492 8.08866 11.1221C7.91503 11.995 8.00415 12.8998 8.34474 13.7221C8.68533 14.5443 9.26211 15.2471 10.0021 15.7416C10.7422 16.2361 11.6122 16.5 12.5022 16.5C13.6957 16.5 14.8403 16.0259 15.6842 15.182C16.5281 14.3381 17.0022 13.1935 17.0022 12ZM18.5022 7.125C18.5022 6.9025 18.4362 6.68499 18.3126 6.49998C18.189 6.31498 18.0133 6.17078 17.8077 6.08564C17.6021 6.00049 17.3759 5.97821 17.1577 6.02162C16.9395 6.06502 16.739 6.17217 16.5817 6.3295C16.4244 6.48684 16.3172 6.68729 16.2738 6.90552C16.2304 7.12375 16.2527 7.34995 16.3378 7.55552C16.423 7.76109 16.5672 7.93679 16.7522 8.0604C16.9372 8.18402 17.1547 8.25 17.3772 8.25C17.6756 8.25 17.9617 8.13147 18.1727 7.9205C18.3837 7.70952 18.5022 7.42337 18.5022 7.125Z" fill="#FF9D02"/>
</svg>
