<svg width="88" height="88" viewBox="0 0 88 88" fill="none" xmlns="http://www.w3.org/2000/svg">
<rect x="1" y="1" width="86" height="86" rx="43" fill="white"/>
<rect x="1" y="1" width="86" height="86" rx="43" stroke="#FF9D02" stroke-width="2"/>
<path d="M44 24C31.8468 24 22 32.9516 22 44C22 55.0484 31.8468 64 44 64C56.1532 64 66 55.0484 66 44C66 32.9516 56.1532 24 44 24ZM52.2048 49.2419L50.4306 51.2581C50.3141 51.3904 50.1702 51.5006 50.0069 51.5823C49.8436 51.6641 49.6642 51.7158 49.479 51.7345C49.2937 51.7533 49.1062 51.7386 48.9272 51.6915C48.7481 51.6443 48.581 51.5655 48.4355 51.4597L42.4919 47.45C42.0766 47.1477 41.7414 46.7644 41.5111 46.3285C41.2808 45.8925 41.1612 45.4151 41.1613 44.9314V32.3871C41.1613 32.0449 41.3108 31.7167 41.577 31.4747C41.8432 31.2327 42.2042 31.0968 42.5806 31.0968H45.4194C45.7958 31.0968 46.1568 31.2327 46.423 31.4747C46.6892 31.7167 46.8387 32.0449 46.8387 32.3871V44L51.9839 47.4274C50.4306 24.8674 52.2507 47.6643 52.3407 47.8128C52.4306 47.9614 52.4874 48.1245 52.5079 48.2931C52.5285 48.4616 52.5122 48.6321 52.4602 48.7949C52.4082 48.9577 52.3214 49.1096 52.2048 49.2419Z" fill="#FF9D02"/>
</svg>
