<svg width="88" height="88" viewBox="0 0 88 88" fill="none" xmlns="http://www.w3.org/2000/svg">
<rect x="1" y="1" width="86" height="86" rx="43" fill="white"/>
<rect x="1" y="1" width="86" height="86" rx="43" stroke="#FF9D02" stroke-width="2"/>
<path d="M63.5934 45.2565C64.3969 46.0599 64.8522 47.1491 64.8522 48.2829C64.8522 49.4167 64.3969 50.5059 63.5934 51.3093C62.7899 52.1128 61.7008 52.5681 60.567 52.5681H26.2852C25.1487 52.5681 24.0587 52.1128 23.2552 51.3093C22.4517 50.5059 22 49.4167 22 48.2829C22 47.1491 22.4517 46.0599 23.2552 45.2565C24.0587 44.453 25.1487 43.9977 26.2852 43.9977H60.567C61.7008 43.9977 62.7899 44.453 63.5934 45.2565ZM63.0042 55.8445C63.272 56.1124 63.4238 56.4784 63.4238 56.8533V58.2817C63.4238 59.7191 62.8256 61.2546 61.7543 62.3259C60.683 63.3972 59.1475 63.9954 57.7101 63.9954H29.142C27.627 63.9954 26.1736 63.3972 25.1023 62.3259C24.0301 61.2546 23.4284 59.7191 23.4284 58.2817V56.8533C23.4284 56.4784 23.5793 56.1124 23.8471 55.8445C24.1149 55.5767 24.4783 55.4249 24.8568 55.4249H61.9954C62.3703 55.4249 62.7363 55.5767 63.0042 55.8445ZM25.0702 40.8552C24.672 40.6588 24.3238 40.382 24.0507 40.0339C23.7775 39.6857 23.5882 39.2839 23.4954 38.8554C23.4025 38.418 23.4106 37.9716 23.5168 37.5431C25.48 29.8047 33.6504 24 43.4261 24C53.2017 24 61.3704 29.8047 63.3345 37.5431C63.4416 37.9716 63.4506 38.418 63.3523 38.8554C63.2631 39.2839 63.0756 39.6857 62.7988 40.0339C62.4507 40.382 62.1828 40.6588 61.7811 40.8552C61.3883 41.0427 60.9508 41.1409 60.5045 41.1409H26.345C25.904 41.1409 25.4675 41.0427 25.0702 40.8552ZM53.8445 31.5616C53.5767 31.8294 53.4249 32.1955 53.4249 32.5704C53.4249 32.8561 53.5053 33.1329 53.666 33.365C53.8267 33.5971 53.9695 33.7846 54.3088 33.8917C54.5676 33.9185 54.8533 34.0256 55.1301 33.9721C55.4068 33.9185 55.6657 33.7846 55.8621 33.5792C56.0675 33.3828 56.2014 33.1239 56.255 32.8472C56.3085 32.5704 56.2014 32.2848 56.1746 32.0259C56.0675 31.6866 55.88 31.5438 55.6479 31.3831C55.4158 31.2224 55.139 31.0617 54.8533 31.0617C54.4784 31.0617 54.1123 31.2938 53.8445 31.5616ZM42.4173 28.7039C42.1494 28.9717 41.9977 29.3351 41.9977 29.7136C41.9977 29.9957 42.078 30.2761 42.2387 30.5082C42.3994 30.7403 42.5423 30.9278 42.8815 31.0349C43.1404 31.0617 43.4261 31.1688 43.7028 31.1152C43.9796 31.0617 44.2385 30.9278 44.4349 30.7224C44.6402 30.526 44.7741 30.2671 44.8277 29.9922C44.8813 29.7154 44.7741 29.4279 44.7474 29.1673C44.6402 28.9057 44.4528 28.6825 44.2206 28.5263C43.9885 28.3691 43.7118 28.2049 43.4261 28.2049C43.0511 28.2049 42.6851 28.4361 42.4173 28.7039ZM30.99 31.5616C30.7222 31.8294 30.5704 32.1955 30.5704 32.5704C30.5704 32.8561 30.6508 33.1329 30.8115 33.365C30.9722 33.5971 31.115 33.7846 31.4543 33.8917C31.7132 33.9185 31.9988 34.0256 32.2756 33.9721C32.5523 33.9185 32.8112 33.7846 33.0077 33.5792C33.213 33.3828 33.3469 33.1239 33.4005 32.8472C33.454 32.5704 33.3469 32.2848 33.3201 32.0259C33.213 31.6866 33.0255 31.5438 32.7934 31.3831C32.5613 31.2224 32.2845 31.0617 31.9988 31.0617C31.6239 31.0617 31.2579 31.2938 30.99 31.5616Z" fill="#FF9D02"/>
</svg>
