<svg width="88" height="88" viewBox="0 0 88 88" fill="none" xmlns="http://www.w3.org/2000/svg">
<rect x="1" y="1" width="86" height="86" rx="43" fill="white"/>
<rect x="1" y="1" width="86" height="86" rx="43" stroke="#FF9D02" stroke-width="2"/>
<path d="M60 34H54V24H26C23.79 24 22 26.2375 22 29V56.5H26C26 60.6375 28.69 64 32 64C35.31 64 38 60.6375 38 56.5H50C50 60.6375 52.69 64 56 64C59.31 64 62 60.6375 62 56.5H66V44L60 34ZM32 60.25C30.34 60.25 29 58.575 29 56.5C29 54.425 30.34 52.75 32 52.75C33.66 52.75 35 54.425 35 56.5C35 58.575 33.66 60.25 32 60.25ZM59 37.75L62.93 44H54V37.75H59ZM56 60.25C54.34 60.25 53 58.575 53 56.5C53 54.425 54.34 52.75 56 52.75C57.66 52.75 59 54.425 59 56.5C59 58.575 57.66 60.25 56 60.25Z" fill="#FF9D02"/>
</svg>
